# xmcd
#
# Track frame offsets: 
#        150
#        20935
#        35370
#        52235
#        74132
#        87325
#        104520
#        118080
#        135197
#        150497
#
# Disc length: 2232 seconds
#
# Revision: 0
# Processed by: cddbd v1.5.2PL0 Copyright (c) Steve Scherf et al.
# Submitted via: ExactAudioCopy v0.99pb1
#
DISCID=8e08b60a
DTITLE=Eddie Floyd - Eddie Loves You So
DYEAR=2008
DGENRE=R&B
TTITLE0='Til My Back Ain't Got No Bone
TTITLE1=Since You Been Gone
TTITLE2=Close to You
TTITLE3=I Don't Want to be With Nobody But You
TTITLE4=You Don't Know What You Mean to Me
TTITLE5=I Will Always Have Faith in You
TTITLE6=Head to Toe
TTITLE7=Never Get Enough of Your Love
TTITLE8=You're So Fine
TTITLE9=Consider Me
EXTD=
EXTT0=
EXTT1=
EXTT2=
EXTT3=
EXTT4=
EXTT5=
EXTT6=
EXTT7=
EXTT8=
EXTT9=
PLAYORDER=
